<?xml version="1.0" encoding="UTF-8" standalone="no"?>
<svg
   xmlns:svg="http://www.w3.org/2000/svg"
   xmlns="http://www.w3.org/2000/svg"
   height="24.53606mm"
   width="45.431412mm"
   version="1.1"
   id="svg2">
  <path
     id="path4208"
     style="fill:#000000;fill-opacity:1;stroke:none;stroke-width:1px;stroke-linecap:butt;stroke-linejoin:miter;stroke-opacity:1"
     d="m 129.99878,59.565518 q 0,-1.490638 0.43207,-2.592414 0.43207,-1.12338 1.14498,-1.857897 0.71292,-0.734518 1.64187,-1.101776 0.92895,-0.367259 1.9011,-0.367259 2.26836,0 3.47816,1.425828 1.20979,1.404224 1.20979,4.299087 0,0.12962 0,0.345655 0,0.194431 -0.0216,0.367258 l -7.69083,0 q 0.12962,1.74988 1.01536,2.657225 0.88574,0.907345 2.76524,0.907345 1.05857,0 1.77148,-0.172828 0.73452,-0.194431 1.10178,-0.367258 l 0.28085,1.685069 q -0.36726,0.194431 -1.29621,0.410465 -0.90735,0.216035 -2.07393,0.216035 -1.46904,0 -2.54921,-0.432069 -1.05857,-0.453673 -1.74988,-1.231397 -0.69131,-0.777724 -1.03697,-1.836293 -0.32405,-1.080173 -0.32405,-2.354776 z m 7.71243,-1.101776 q 0.0216,-1.361018 -0.69131,-2.225156 -0.69131,-0.885741 -1.9227,-0.885741 -0.69131,0 -1.2314,0.280845 -0.51848,0.259241 -0.88574,0.69131 -0.36726,0.432069 -0.58329,0.993759 -0.19444,0.56169 -0.25925,1.144983 l 5.57369,0 z m -25.69359,-4.212673 q 0.69132,-0.172828 1.81469,-0.367259 1.14499,-0.194431 2.63563,-0.194431 1.08017,0 1.81469,0.302448 0.73451,0.280845 1.23139,0.842535 0.15123,-0.108017 0.47528,-0.302448 0.32405,-0.194431 0.79933,-0.367259 0.47527,-0.194431 1.05856,-0.324052 0.5833,-0.151224 1.253,-0.151224 1.29621,0 2.11714,0.388862 0.82093,0.367259 1.27461,1.058569 0.47527,0.691311 0.6265,1.641863 0.17282,0.950551 0.17282,2.073931 l 0,6.308207 -2.00912,0 0,-5.876138 q 0,-0.993759 -0.10801,-1.706673 -0.0864,-0.712914 -0.36726,-1.18819 -0.25924,-0.475276 -0.73452,-0.69131 -0.45367,-0.237638 -1.18819,-0.237638 -1.01536,0 -1.68507,0.280845 -0.6481,0.259241 -0.88574,0.475276 0.17283,0.56169 0.25924,1.231396 0.0864,0.669707 0.0864,1.404225 l 0,6.308207 -2.00912,0 0,-5.876138 q 0,-0.993759 -0.10801,-1.706673 -0.10802,-0.712914 -0.38887,-1.18819 -0.25924,-0.475276 -0.73451,-0.69131 -0.45368,-0.237638 -1.16659,-0.237638 -0.30245,0 -0.6481,0.0216 -0.34566,0.0216 -0.66971,0.06481 -0.30245,0.0216 -0.56169,0.06481 -0.25924,0.04321 -0.34565,0.06481 l 0,9.483914 -2.00913,0 0,-10.909742 z m -12.694046,5.314449 q 0,-1.490638 0.432069,-2.592414 0.432067,-1.12338 1.144987,-1.857897 0.71291,-0.734518 1.64186,-1.101776 0.92895,-0.367259 1.9011,-0.367259 2.26836,0 3.47816,1.425828 1.20979,1.404224 1.20979,4.299087 0,0.12962 0,0.345655 0,0.194431 -0.0216,0.367258 l -7.69083,0 q 0.12962,1.74988 1.01536,2.657225 0.88574,0.907345 2.76524,0.907345 1.05857,0 1.77149,-0.172828 0.73451,-0.194431 1.10177,-0.367258 l 0.28085,1.685069 q -0.36726,0.194431 -1.29621,0.410465 -0.90735,0.216035 -2.07393,0.216035 -1.46904,0 -2.54921,-0.432069 -1.05857,-0.453673 -1.74988,-1.231397 -0.691309,-0.777724 -1.036964,-1.836293 -0.324052,-1.080173 -0.324052,-2.354776 z m 7.712436,-1.101776 q 0.0216,-1.361018 -0.69131,-2.225156 -0.69131,-0.885741 -1.92271,-0.885741 -0.69131,0 -1.2314,0.280845 -0.51848,0.259241 -0.88574,0.69131 -0.36726,0.432069 -0.58329,0.993759 -0.19443,0.56169 -0.25924,1.144983 l 5.57369,0 z m -19.406653,6.697069 0,-16.418622 2.009121,-0.345655 0,5.746518 q 0.56169,-0.216035 1.18819,-0.324052 0.648103,-0.129621 1.274603,-0.129621 1.339414,0 2.225156,0.388862 0.885741,0.367259 1.404224,1.058569 0.540086,0.669707 0.756121,1.620259 0.216034,0.950552 0.216034,2.095535 l 0,6.308207 -2.00912,0 0,-5.876138 q 0,-1.036966 -0.151225,-1.771483 -0.12962,-0.734517 -0.453672,-1.18819 -0.324052,-0.453672 -0.864138,-0.648103 -0.540086,-0.216035 -1.339414,-0.216035 -0.324052,0 -0.669707,0.04321 -0.345655,0.04321 -0.669707,0.108017 -0.302448,0.04321 -0.56169,0.108017 -0.237638,0.06481 -0.345655,0.108018 l 0,9.33269 -2.009121,0 z m -2.062119,-14.971191 0,1.81469 -4.709552,0 0,13.156501 -2.095535,0 0,-13.156501 -4.709552,0 0,-1.81469 11.514639,0 z m -17.937615,9.354294 q 0,1.339414 -0.388862,2.419587 -0.388862,1.080172 -1.101776,1.857896 -0.691311,0.777725 -1.663466,1.209794 -0.972155,0.410465 -2.117138,0.410465 -1.144983,0 -2.117138,-0.410465 -0.972155,-0.432069 -1.685069,-1.209794 -0.691311,-0.777724 -1.080173,-1.857896 -0.388862,-1.080173 -0.388862,-2.419587 0,-1.31781 0.388862,-2.397983 0.388862,-1.101776 1.080173,-1.8795 0.712914,-0.777724 1.685069,-1.18819 0.972155,-0.432069 2.117138,-0.432069 1.144983,0 2.117138,0.432069 0.972155,0.410466 1.663466,1.18819 0.712914,0.777724 1.101776,1.8795 0.388862,1.080173 0.388862,2.397983 z m -2.095535,0 q 0,-1.901103 -0.864138,-3.002879 -0.842534,-1.12338 -2.311569,-1.12338 -1.469035,0 -2.333173,1.12338 -0.842534,1.101776 -0.842534,3.002879 0,1.901104 0.842534,3.024483 0.864138,1.101776 2.333173,1.101776 1.469035,0 2.311569,-1.101776 0.864138,-1.123379 0.864138,-3.024483 z m -13.267222,4.493518 q -0.259242,0.172828 -1.015362,0.453672 -0.734518,0.259242 -1.728276,0.259242 -1.015363,0 -1.922707,-0.324052 -0.885742,-0.324052 -1.555449,-0.993759 -0.669707,-0.69131 -1.058569,-1.706672 -0.388862,-1.015362 -0.388862,-2.419587 0,-1.231396 0.367259,-2.246759 0.367258,-1.036965 1.058569,-1.771483 0.712913,-0.75612 1.728276,-1.166586 1.015362,-0.432069 2.289965,-0.432069 1.404225,0 2.44119,0.216035 1.058569,0.194431 1.771483,0.367258 l 0,10.024001 q 0,2.592414 -1.339414,3.759001 -1.339414,1.166586 -4.061448,1.166586 -1.058569,0 -2.009121,-0.172827 -0.928949,-0.172828 -1.620259,-0.410466 l 0.367259,-1.74988 q 0.604896,0.237638 1.469034,0.410466 0.885742,0.194431 1.836294,0.194431 1.793086,0 2.57081,-0.712914 0.799328,-0.712914 0.799328,-2.268362 l 0,-0.475276 z m -0.0216,-8.338932 q -0.302448,-0.08641 -0.820931,-0.151224 -0.496879,-0.08641 -1.361017,-0.08641 -1.620259,0 -2.506,1.058569 -0.864138,1.058569 -0.864138,2.808449 0,0.972155 0.237638,1.663465 0.259241,0.691311 0.669707,1.144983 0.432069,0.453673 0.972155,0.669707 0.56169,0.216035 1.144983,0.216035 0.799327,0 1.469034,-0.216035 0.669707,-0.237638 1.058569,-0.540086 l 0,-6.567449 z m -10.482402,9.13826 q -0.69131,0.172827 -1.836293,0.367258 -1.12338,0.194431 -2.614018,0.194431 -1.296207,0 -2.181948,-0.367258 -0.885742,-0.388862 -1.425828,-1.080173 -0.540086,-0.69131 -0.777724,-1.620259 -0.237638,-0.950551 -0.237638,-2.095534 l 0,-6.308208 2.009121,0 0,5.876139 q 0,2.052327 0.648103,2.938069 0.648104,0.885741 2.181949,0.885741 0.324051,0 0.669707,-0.0216 0.345655,-0.0216 0.648103,-0.04321 0.302448,-0.04321 0.540086,-0.06481 0.259242,-0.04321 0.367259,-0.08641 l 0,-9.483915 2.009121,0 0,10.909743 z M 27.13564,50.18962 l 2.095535,0 0,14.971191 -2.095535,0 0,-6.913104 -7.32357,0 0,6.913104 -2.095534,0 0,-14.971191 2.095534,0 0,6.243397 7.32357,0 0,-6.243397 z M 128.64279,28.396535 q 6.04,0.24 8.84,2.64 2.84,2.4 2.84,6.52 0,1.84 -0.64,3.4 -0.6,1.56 -1.88,2.68 -1.24,1.12 -3.16,1.76 -1.92,0.64 -4.56,0.64 -1.04,0 -2.12,-0.16 -1.08,-0.16 -2,-0.4 -0.92,-0.24 -1.64,-0.48 -0.72,-0.24 -1.04,-0.4 l 0.72,-3.24 q 0.68,0.32 2.2,0.84 1.56,0.52 3.8,0.52 1.8,0 3,-0.4 1.24,-0.4 2,-1.08 0.76,-0.68 1.08,-1.56 0.36,-0.92 0.36,-1.92 0,-1.52 -0.52,-2.68 -0.52,-1.2 -1.84,-2 -1.32,-0.8 -3.52,-1.2 -2.2,-0.44 -5.56,-0.44 0.24,-1.96 0.36,-3.68 0.16,-1.72 0.28,-3.36 0.12,-1.64 0.2,-3.24 0.08,-1.64 0.16,-3.44 l 13.36,0 0,3.16 -10.12,0 q -0.04,0.6 -0.12,1.64 -0.08,1 -0.16,2.12 -0.08,1.08 -0.16,2.12 -0.08,1.04 -0.16,1.64 z m -8.62125,13.68 0,3.36 -16.68,0 0,-27.72 3.88,0 0,24.36 12.8,0 z m -39.083755,-0.48 q -0.4,-0.96 -1.08,-2.44 -0.64,-1.48 -1.4,-3.2 -0.76,-1.72 -1.64,-3.52 -0.84,-1.84 -1.6,-3.44 -0.76,-1.64 -1.44,-2.92 -0.64,-1.28 -1.04,-1.96 -0.44,4.72 -0.72,10.24 -0.28,5.48 -0.48,11.08 l -3.8,0 q 0.16,-3.6 0.36,-7.24 0.2,-3.68 0.44,-7.2 0.28,-3.56 0.56,-6.92 0.32,-3.36 0.68,-6.36 l 3.4,0 q 1.08,1.76 2.32,4.16 1.24,2.4 2.48,5.04 1.24,2.6 2.4,5.24 1.16,2.6 2.12,4.76 0.96,-2.16 2.12,-4.76 1.16,-2.64 2.4,-5.24 1.24,-2.64 2.48,-5.04 1.24,-2.4 2.32,-4.16 l 3.4,0 q 1.36,13.4 2.04,27.72 l -3.8,0 q -0.2,-5.6 -0.48,-11.08 -0.28,-5.52 -0.72,-10.24 -0.4,0.68 -1.08,1.96 -0.64,1.28 -1.4,2.92 -0.76,1.6 -1.64,3.44 -0.84,1.8 -1.6,3.52 -0.76,1.72 -1.44,3.2 -0.64,1.48 -1.04,2.44 l -3.12,0 z m -16.498125,-23.88 0,3.36 -8.72,0 0,24.36 -3.88,0 0,-24.36 -8.72,0 0,-3.36 21.32,0 z m -29.283125,0 3.88,0 0,27.72 -3.88,0 0,-12.8 -13.56,0 0,12.8 -3.88,0 0,-27.72 3.88,0 0,11.56 13.56,0 0,-11.56 z" />
</svg>
